<mxfile host="app.diagrams.net" agent="Mozilla/5.0 (Windows NT 10.0; Win64; x64) AppleWebKit/537.36 (KHTML, like Gecko) Chrome/132.0.0.0 Safari/537.36" version="26.0.9" pages="2">
  <diagram name="Page-1" id="RAHr6wCWqm_RJsUcqQ_r">
    <mxGraphModel dx="1120" dy="494" grid="1" gridSize="10" guides="1" tooltips="1" connect="1" arrows="1" fold="1" page="1" pageScale="1" pageWidth="850" pageHeight="1100" math="0" shadow="0">
      <root>
        <mxCell id="0" />
        <mxCell id="1" parent="0" />
        <mxCell id="nD1_txr7TnveIEc3btMG-26" style="edgeStyle=orthogonalEdgeStyle;rounded=0;orthogonalLoop=1;jettySize=auto;html=1;" parent="1" source="nD1_txr7TnveIEc3btMG-1" edge="1">
          <mxGeometry relative="1" as="geometry">
            <Array as="points">
              <mxPoint x="230" y="250" />
              <mxPoint x="230" y="250" />
            </Array>
            <mxPoint x="240" y="250" as="targetPoint" />
          </mxGeometry>
        </mxCell>
        <mxCell id="nD1_txr7TnveIEc3btMG-1" value="3d-printing-portal" style="rounded=1;whiteSpace=wrap;html=1;" parent="1" vertex="1">
          <mxGeometry x="20" y="240" width="120" height="40" as="geometry" />
        </mxCell>
        <mxCell id="nD1_txr7TnveIEc3btMG-3" value="3d-printing-auth-Api" style="rounded=1;whiteSpace=wrap;html=1;" parent="1" vertex="1">
          <mxGeometry x="520" y="320" width="120" height="40" as="geometry" />
        </mxCell>
        <mxCell id="nD1_txr7TnveIEc3btMG-7" value="payment-Api" style="rounded=1;whiteSpace=wrap;html=1;" parent="1" vertex="1">
          <mxGeometry x="520" y="80" width="120" height="40" as="geometry" />
        </mxCell>
        <mxCell id="nD1_txr7TnveIEc3btMG-8" value="users-Api" style="rounded=1;whiteSpace=wrap;html=1;" parent="1" vertex="1">
          <mxGeometry x="520" y="160" width="120" height="40" as="geometry" />
        </mxCell>
        <mxCell id="nD1_txr7TnveIEc3btMG-16" value="3dprinter-integration-Api" style="rounded=1;whiteSpace=wrap;html=1;" parent="1" vertex="1">
          <mxGeometry x="520" y="240" width="120" height="40" as="geometry" />
        </mxCell>
        <mxCell id="nD1_txr7TnveIEc3btMG-18" value="" style="endArrow=none;html=1;rounded=0;" parent="1" edge="1">
          <mxGeometry width="50" height="50" relative="1" as="geometry">
            <mxPoint x="440" y="340" as="sourcePoint" />
            <mxPoint x="440" y="30" as="targetPoint" />
          </mxGeometry>
        </mxCell>
        <mxCell id="nD1_txr7TnveIEc3btMG-19" value="" style="endArrow=classic;html=1;rounded=0;entryX=0;entryY=0.5;entryDx=0;entryDy=0;" parent="1" target="nD1_txr7TnveIEc3btMG-7" edge="1">
          <mxGeometry width="50" height="50" relative="1" as="geometry">
            <mxPoint x="440" y="100" as="sourcePoint" />
            <mxPoint x="450" y="210" as="targetPoint" />
          </mxGeometry>
        </mxCell>
        <mxCell id="nD1_txr7TnveIEc3btMG-20" value="" style="endArrow=classic;html=1;rounded=0;entryX=0;entryY=0.5;entryDx=0;entryDy=0;" parent="1" edge="1">
          <mxGeometry width="50" height="50" relative="1" as="geometry">
            <mxPoint x="440" y="179.5" as="sourcePoint" />
            <mxPoint x="520" y="179.5" as="targetPoint" />
          </mxGeometry>
        </mxCell>
        <mxCell id="nD1_txr7TnveIEc3btMG-23" value="" style="endArrow=classic;html=1;rounded=0;entryX=0;entryY=0.5;entryDx=0;entryDy=0;" parent="1" edge="1">
          <mxGeometry width="50" height="50" relative="1" as="geometry">
            <mxPoint x="440" y="259.5" as="sourcePoint" />
            <mxPoint x="520" y="259.5" as="targetPoint" />
          </mxGeometry>
        </mxCell>
        <mxCell id="nD1_txr7TnveIEc3btMG-27" value="" style="endArrow=classic;html=1;rounded=0;exitX=0;exitY=1;exitDx=0;exitDy=0;entryX=1;entryY=1;entryDx=0;entryDy=0;" parent="1" edge="1">
          <mxGeometry width="50" height="50" relative="1" as="geometry">
            <mxPoint x="240" y="270" as="sourcePoint" />
            <mxPoint x="140" y="270" as="targetPoint" />
          </mxGeometry>
        </mxCell>
        <mxCell id="nD1_txr7TnveIEc3btMG-29" value="" style="endArrow=none;html=1;rounded=0;exitX=1;exitY=0.5;exitDx=0;exitDy=0;" parent="1" edge="1">
          <mxGeometry width="50" height="50" relative="1" as="geometry">
            <mxPoint x="360" y="260" as="sourcePoint" />
            <mxPoint x="440" y="260" as="targetPoint" />
          </mxGeometry>
        </mxCell>
        <mxCell id="nD1_txr7TnveIEc3btMG-30" value="&lt;b&gt;&lt;u&gt;Services&lt;/u&gt;&lt;/b&gt;" style="text;html=1;align=center;verticalAlign=middle;whiteSpace=wrap;rounded=0;" parent="1" vertex="1">
          <mxGeometry x="130" y="20" width="160" height="30" as="geometry" />
        </mxCell>
        <mxCell id="HKxHVvfvl9pLq84g_FQR-14" value="Worklow" style="swimlane;whiteSpace=wrap;html=1;" parent="1" vertex="1">
          <mxGeometry x="55" y="650" width="380" height="160" as="geometry" />
        </mxCell>
        <mxCell id="HKxHVvfvl9pLq84g_FQR-18" value="&lt;ol&gt;&lt;li&gt;&lt;strong style=&quot;background-color: initial;&quot;&gt;Requestor uploads 3D model file (STL or OBJ format) .&lt;/strong&gt;&lt;/li&gt;&lt;li&gt;&lt;strong&gt;Platform validates file.&lt;/strong&gt;&lt;/li&gt;&lt;li&gt;&lt;b&gt;Generate Quote and Send to requestor.&lt;/b&gt;&lt;/li&gt;&lt;li&gt;&lt;strong&gt;Platform queues job and sends it to Formlabs Form 3L.&lt;/strong&gt;&lt;/li&gt;&lt;li&gt;&lt;strong&gt;Student monitors progress via live video or dashboard.&lt;/strong&gt;&lt;/li&gt;&lt;/ol&gt;&lt;li&gt;&lt;/li&gt;" style="text;html=1;align=left;verticalAlign=middle;resizable=0;points=[];autosize=1;strokeColor=none;fillColor=none;" parent="HKxHVvfvl9pLq84g_FQR-14" vertex="1">
          <mxGeometry y="20" width="380" height="120" as="geometry" />
        </mxCell>
        <mxCell id="HKxHVvfvl9pLq84g_FQR-33" style="edgeStyle=orthogonalEdgeStyle;rounded=0;orthogonalLoop=1;jettySize=auto;html=1;" parent="1" source="HKxHVvfvl9pLq84g_FQR-30" target="HKxHVvfvl9pLq84g_FQR-32" edge="1">
          <mxGeometry relative="1" as="geometry" />
        </mxCell>
        <mxCell id="HKxHVvfvl9pLq84g_FQR-30" value="1. Requestor" style="rounded=0;whiteSpace=wrap;html=1;" parent="1" vertex="1">
          <mxGeometry y="390" width="120" height="60" as="geometry" />
        </mxCell>
        <mxCell id="HKxHVvfvl9pLq84g_FQR-37" style="edgeStyle=orthogonalEdgeStyle;rounded=0;orthogonalLoop=1;jettySize=auto;html=1;entryX=0.5;entryY=0;entryDx=0;entryDy=0;" parent="1" source="HKxHVvfvl9pLq84g_FQR-31" target="HKxHVvfvl9pLq84g_FQR-36" edge="1">
          <mxGeometry relative="1" as="geometry" />
        </mxCell>
        <mxCell id="HKxHVvfvl9pLq84g_FQR-31" value="2. 3D printing platform" style="rounded=0;whiteSpace=wrap;html=1;" parent="1" vertex="1">
          <mxGeometry x="330" y="390" width="120" height="60" as="geometry" />
        </mxCell>
        <mxCell id="HKxHVvfvl9pLq84g_FQR-34" style="edgeStyle=orthogonalEdgeStyle;rounded=0;orthogonalLoop=1;jettySize=auto;html=1;entryX=0;entryY=0.5;entryDx=0;entryDy=0;" parent="1" source="HKxHVvfvl9pLq84g_FQR-32" target="HKxHVvfvl9pLq84g_FQR-31" edge="1">
          <mxGeometry relative="1" as="geometry" />
        </mxCell>
        <mxCell id="HKxHVvfvl9pLq84g_FQR-32" value="STL File" style="shape=card;whiteSpace=wrap;html=1;" parent="1" vertex="1">
          <mxGeometry x="190" y="385" width="80" height="70" as="geometry" />
        </mxCell>
        <mxCell id="HKxHVvfvl9pLq84g_FQR-35" value="&lt;strong style=&quot;background-color: initial;&quot;&gt;Student uploads STL file&lt;br&gt;&lt;/strong&gt;" style="text;html=1;align=center;verticalAlign=middle;resizable=0;points=[];autosize=1;strokeColor=none;fillColor=none;" parent="1" vertex="1">
          <mxGeometry x="150" y="338" width="160" height="30" as="geometry" />
        </mxCell>
        <mxCell id="HKxHVvfvl9pLq84g_FQR-38" style="edgeStyle=orthogonalEdgeStyle;rounded=0;orthogonalLoop=1;jettySize=auto;html=1;entryX=0.5;entryY=1;entryDx=0;entryDy=0;" parent="1" source="HKxHVvfvl9pLq84g_FQR-36" target="HKxHVvfvl9pLq84g_FQR-30" edge="1">
          <mxGeometry relative="1" as="geometry" />
        </mxCell>
        <mxCell id="HKxHVvfvl9pLq84g_FQR-41" style="edgeStyle=orthogonalEdgeStyle;rounded=0;orthogonalLoop=1;jettySize=auto;html=1;entryX=0;entryY=0.5;entryDx=0;entryDy=0;" parent="1" source="HKxHVvfvl9pLq84g_FQR-36" target="HKxHVvfvl9pLq84g_FQR-40" edge="1">
          <mxGeometry relative="1" as="geometry" />
        </mxCell>
        <mxCell id="HKxHVvfvl9pLq84g_FQR-36" value="Is file Valid" style="rhombus;whiteSpace=wrap;html=1;" parent="1" vertex="1">
          <mxGeometry x="350" y="510" width="80" height="80" as="geometry" />
        </mxCell>
        <mxCell id="HKxHVvfvl9pLq84g_FQR-39" value="Reject" style="text;html=1;align=center;verticalAlign=middle;resizable=0;points=[];autosize=1;strokeColor=none;fillColor=none;" parent="1" vertex="1">
          <mxGeometry x="160" y="518" width="60" height="30" as="geometry" />
        </mxCell>
        <mxCell id="HKxHVvfvl9pLq84g_FQR-42" style="edgeStyle=orthogonalEdgeStyle;rounded=0;orthogonalLoop=1;jettySize=auto;html=1;" parent="1" source="HKxHVvfvl9pLq84g_FQR-40" edge="1">
          <mxGeometry relative="1" as="geometry">
            <mxPoint x="60" y="550" as="targetPoint" />
            <Array as="points">
              <mxPoint x="580" y="640" />
            </Array>
          </mxGeometry>
        </mxCell>
        <mxCell id="HKxHVvfvl9pLq84g_FQR-40" value="3. Generate Quote&amp;nbsp;" style="rounded=0;whiteSpace=wrap;html=1;" parent="1" vertex="1">
          <mxGeometry x="520" y="520" width="120" height="60" as="geometry" />
        </mxCell>
        <mxCell id="HKxHVvfvl9pLq84g_FQR-43" value="Send Quote" style="text;html=1;align=center;verticalAlign=middle;resizable=0;points=[];autosize=1;strokeColor=none;fillColor=none;" parent="1" vertex="1">
          <mxGeometry x="165" y="610" width="90" height="30" as="geometry" />
        </mxCell>
        <mxCell id="9RPeVKcNnwP2lE6VIO22-1" value="LAN" style="swimlane;whiteSpace=wrap;html=1;" parent="1" vertex="1">
          <mxGeometry x="50" y="980" width="926.07" height="300" as="geometry" />
        </mxCell>
        <mxCell id="HKxHVvfvl9pLq84g_FQR-45" value="formlabs form 3l" style="text;html=1;align=center;verticalAlign=middle;resizable=0;points=[];autosize=1;strokeColor=none;fillColor=none;" parent="9RPeVKcNnwP2lE6VIO22-1" vertex="1">
          <mxGeometry x="10" y="30" width="110" height="30" as="geometry" />
        </mxCell>
        <mxCell id="HKxHVvfvl9pLq84g_FQR-44" value="" style="shape=image;html=1;verticalAlign=top;verticalLabelPosition=bottom;labelBackgroundColor=#ffffff;imageAspect=0;aspect=fixed;image=https://cdn2.iconfinder.com/data/icons/analytic-investment-and-balanced-scorecard/512/426_box_3d_cube_smartphone_product_3d_print_printing-128.png" parent="9RPeVKcNnwP2lE6VIO22-1" vertex="1">
          <mxGeometry x="10" y="60" width="128" height="128" as="geometry" />
        </mxCell>
        <mxCell id="9RPeVKcNnwP2lE6VIO22-2" value="" style="image;html=1;image=img/lib/clip_art/computers/Server_Tower_128x128.png" parent="9RPeVKcNnwP2lE6VIO22-1" vertex="1">
          <mxGeometry x="370" y="69" width="110" height="110" as="geometry" />
        </mxCell>
        <mxCell id="9RPeVKcNnwP2lE6VIO22-3" value="" style="endArrow=classic;startArrow=classic;html=1;rounded=0;" parent="9RPeVKcNnwP2lE6VIO22-1" edge="1">
          <mxGeometry width="50" height="50" relative="1" as="geometry">
            <mxPoint x="150" y="120" as="sourcePoint" />
            <mxPoint x="260" y="120" as="targetPoint" />
          </mxGeometry>
        </mxCell>
        <mxCell id="9RPeVKcNnwP2lE6VIO22-5" value="1 - Download and install the FormServer application&lt;div&gt;&amp;nbsp;on the workstation or server.&lt;/div&gt;&lt;div&gt;&lt;span style=&quot;text-align: center;&quot;&gt;2 - Configure FormServer for local access.&lt;/span&gt;&lt;/div&gt;&lt;div&gt;&lt;span style=&quot;text-align: center;&quot;&gt;3 - Use FormServer to detect and register the printer.&lt;/span&gt;&lt;span style=&quot;text-align: center;&quot;&gt;&lt;/span&gt;&lt;/div&gt;&lt;div&gt;&lt;span style=&quot;text-align: center;&quot;&gt;4 - Deploy Api&lt;/span&gt;&lt;span style=&quot;text-align: center;&quot;&gt;&lt;/span&gt;&lt;/div&gt;&lt;div&gt;&lt;br&gt;&lt;/div&gt;" style="text;html=1;align=left;verticalAlign=middle;resizable=0;points=[];autosize=1;strokeColor=none;fillColor=none;" parent="9RPeVKcNnwP2lE6VIO22-1" vertex="1">
          <mxGeometry x="290" y="179" width="300" height="100" as="geometry" />
        </mxCell>
        <mxCell id="9RPeVKcNnwP2lE6VIO22-8" value="1. Ensure Printer is connected to LAN and has IP&lt;span style=&quot;white-space: pre;&quot;&gt;&#x9;&lt;/span&gt;" style="text;html=1;align=center;verticalAlign=middle;resizable=0;points=[];autosize=1;strokeColor=none;fillColor=none;" parent="9RPeVKcNnwP2lE6VIO22-1" vertex="1">
          <mxGeometry y="198" width="290" height="30" as="geometry" />
        </mxCell>
        <mxCell id="9RPeVKcNnwP2lE6VIO22-12" value="Workstation running FormServer" style="text;html=1;align=center;verticalAlign=middle;resizable=0;points=[];autosize=1;strokeColor=none;fillColor=none;" parent="9RPeVKcNnwP2lE6VIO22-1" vertex="1">
          <mxGeometry x="300" y="40" width="200" height="30" as="geometry" />
        </mxCell>
        <mxCell id="9RPeVKcNnwP2lE6VIO22-18" value="" style="sketch=0;outlineConnect=0;fontColor=#232F3E;gradientColor=none;fillColor=#232F3D;strokeColor=none;dashed=0;verticalLabelPosition=bottom;verticalAlign=top;align=center;html=1;fontSize=12;fontStyle=0;aspect=fixed;pointerEvents=1;shape=mxgraph.aws4.client;" parent="9RPeVKcNnwP2lE6VIO22-1" vertex="1">
          <mxGeometry x="710" y="60" width="122.13" height="119" as="geometry" />
        </mxCell>
        <mxCell id="9RPeVKcNnwP2lE6VIO22-19" value="Client Application" style="text;html=1;align=center;verticalAlign=middle;resizable=0;points=[];autosize=1;strokeColor=none;fillColor=none;" parent="9RPeVKcNnwP2lE6VIO22-1" vertex="1">
          <mxGeometry x="700" y="30" width="120" height="30" as="geometry" />
        </mxCell>
        <mxCell id="9RPeVKcNnwP2lE6VIO22-20" value="" style="endArrow=classic;startArrow=classic;html=1;rounded=0;" parent="9RPeVKcNnwP2lE6VIO22-1" edge="1">
          <mxGeometry width="50" height="50" relative="1" as="geometry">
            <mxPoint x="580" y="123.5" as="sourcePoint" />
            <mxPoint x="690" y="123.5" as="targetPoint" />
          </mxGeometry>
        </mxCell>
        <mxCell id="9RPeVKcNnwP2lE6VIO22-21" value="1 - Communicates with the Api to schedule print jobs,&amp;nbsp;&lt;div&gt;estimate print times and tracking job status&lt;/div&gt;" style="text;html=1;align=center;verticalAlign=middle;resizable=0;points=[];autosize=1;strokeColor=none;fillColor=none;" parent="9RPeVKcNnwP2lE6VIO22-1" vertex="1">
          <mxGeometry x="616.07" y="188" width="310" height="40" as="geometry" />
        </mxCell>
        <mxCell id="9RPeVKcNnwP2lE6VIO22-22" value="" style="endArrow=classic;html=1;rounded=0;entryX=0;entryY=0.5;entryDx=0;entryDy=0;" parent="1" edge="1">
          <mxGeometry width="50" height="50" relative="1" as="geometry">
            <mxPoint x="440" y="340" as="sourcePoint" />
            <mxPoint x="520" y="339.5" as="targetPoint" />
          </mxGeometry>
        </mxCell>
        <mxCell id="9RPeVKcNnwP2lE6VIO22-23" value="Yarp Reverse Proxy" style="rounded=1;whiteSpace=wrap;html=1;" parent="1" vertex="1">
          <mxGeometry x="250" y="240" width="120" height="40" as="geometry" />
        </mxCell>
        <mxCell id="MysOA4tpIFsaDDwvdpkJ-1" value="Queue-Api" style="rounded=1;whiteSpace=wrap;html=1;" vertex="1" parent="1">
          <mxGeometry x="515" y="10" width="120" height="40" as="geometry" />
        </mxCell>
        <mxCell id="MysOA4tpIFsaDDwvdpkJ-2" value="" style="endArrow=classic;html=1;rounded=0;entryX=0;entryY=0.5;entryDx=0;entryDy=0;" edge="1" parent="1" target="MysOA4tpIFsaDDwvdpkJ-1">
          <mxGeometry width="50" height="50" relative="1" as="geometry">
            <mxPoint x="435" y="30" as="sourcePoint" />
            <mxPoint x="445" y="140" as="targetPoint" />
          </mxGeometry>
        </mxCell>
      </root>
    </mxGraphModel>
  </diagram>
  <diagram id="h8ktbvJqJg43DFdvxjYB" name="Page-2">
    <mxGraphModel dx="2573" dy="743" grid="1" gridSize="10" guides="1" tooltips="1" connect="1" arrows="1" fold="1" page="1" pageScale="1" pageWidth="850" pageHeight="1100" math="0" shadow="0">
      <root>
        <mxCell id="0" />
        <mxCell id="1" parent="0" />
        <mxCell id="5rrc9BB_ldE9aC9MNipi-3" value="&lt;font style=&quot;font-size: 18px;&quot;&gt;Clients&lt;/font&gt;" style="swimlane;whiteSpace=wrap;html=1;" vertex="1" parent="1">
          <mxGeometry x="-700" y="240" width="220" height="280" as="geometry" />
        </mxCell>
        <mxCell id="5rrc9BB_ldE9aC9MNipi-4" value="" style="image;aspect=fixed;perimeter=ellipsePerimeter;html=1;align=center;shadow=0;dashed=0;spacingTop=3;image=img/lib/active_directory/laptop_client.svg;" vertex="1" parent="5rrc9BB_ldE9aC9MNipi-3">
          <mxGeometry x="41" y="39" width="99" height="110" as="geometry" />
        </mxCell>
        <mxCell id="5rrc9BB_ldE9aC9MNipi-5" value="" style="shape=image;html=1;verticalAlign=top;verticalLabelPosition=bottom;labelBackgroundColor=#ffffff;imageAspect=0;aspect=fixed;image=https://cdn1.iconfinder.com/data/icons/material-core/24/settings-cell-128.png" vertex="1" parent="5rrc9BB_ldE9aC9MNipi-3">
          <mxGeometry x="40" y="160" width="100" height="100" as="geometry" />
        </mxCell>
        <mxCell id="5rrc9BB_ldE9aC9MNipi-6" value="Front End Applications" style="swimlane;whiteSpace=wrap;html=1;" vertex="1" parent="1">
          <mxGeometry x="-360" y="240" width="220" height="280" as="geometry" />
        </mxCell>
        <mxCell id="5rrc9BB_ldE9aC9MNipi-10" value="&lt;font style=&quot;font-size: 18px;&quot;&gt;3D-printing-portal&lt;/font&gt;" style="text;html=1;align=center;verticalAlign=middle;resizable=0;points=[];autosize=1;strokeColor=none;fillColor=none;" vertex="1" parent="5rrc9BB_ldE9aC9MNipi-6">
          <mxGeometry x="39.99" y="70" width="160" height="40" as="geometry" />
        </mxCell>
        <mxCell id="5rrc9BB_ldE9aC9MNipi-12" value="" style="image;points=[];aspect=fixed;html=1;align=center;shadow=0;dashed=0;image=img/lib/allied_telesis/computer_and_terminals/Server_Desktop.svg;" vertex="1" parent="5rrc9BB_ldE9aC9MNipi-6">
          <mxGeometry x="63.65999999999997" y="130" width="92.69" height="117.5" as="geometry" />
        </mxCell>
        <mxCell id="5rrc9BB_ldE9aC9MNipi-16" value="" style="endArrow=classic;startArrow=classic;html=1;rounded=0;" edge="1" parent="1">
          <mxGeometry width="50" height="50" relative="1" as="geometry">
            <mxPoint x="-460" y="400" as="sourcePoint" />
            <mxPoint x="-380" y="400" as="targetPoint" />
          </mxGeometry>
        </mxCell>
        <mxCell id="5rrc9BB_ldE9aC9MNipi-17" value="&lt;span style=&quot;font-size: 18px; font-weight: 400; text-wrap-mode: nowrap;&quot;&gt;YARP Proxy&lt;/span&gt;" style="swimlane;whiteSpace=wrap;html=1;" vertex="1" parent="1">
          <mxGeometry x="-20" y="230" width="190" height="280" as="geometry" />
        </mxCell>
        <mxCell id="5rrc9BB_ldE9aC9MNipi-18" value="&lt;font style=&quot;font-size: 18px;&quot;&gt;YARP Proxy&lt;/font&gt;" style="text;html=1;align=center;verticalAlign=middle;resizable=0;points=[];autosize=1;strokeColor=none;fillColor=none;" vertex="1" parent="5rrc9BB_ldE9aC9MNipi-17">
          <mxGeometry x="40" y="70" width="120" height="40" as="geometry" />
        </mxCell>
        <mxCell id="5rrc9BB_ldE9aC9MNipi-22" value="" style="aspect=fixed;sketch=0;html=1;dashed=0;whitespace=wrap;verticalLabelPosition=bottom;verticalAlign=top;fillColor=#2875E2;strokeColor=#ffffff;points=[[0.005,0.63,0],[0.1,0.2,0],[0.9,0.2,0],[0.5,0,0],[0.995,0.63,0],[0.72,0.99,0],[0.5,1,0],[0.28,0.99,0]];shape=mxgraph.kubernetes.icon2;prIcon=k_proxy" vertex="1" parent="5rrc9BB_ldE9aC9MNipi-17">
          <mxGeometry x="60" y="130" width="100" height="96" as="geometry" />
        </mxCell>
        <mxCell id="5rrc9BB_ldE9aC9MNipi-21" value="" style="endArrow=classic;startArrow=classic;html=1;rounded=0;" edge="1" parent="1">
          <mxGeometry width="50" height="50" relative="1" as="geometry">
            <mxPoint x="-120" y="400" as="sourcePoint" />
            <mxPoint x="-40" y="400" as="targetPoint" />
          </mxGeometry>
        </mxCell>
        <mxCell id="5rrc9BB_ldE9aC9MNipi-24" value="&lt;font style=&quot;font-size: 18px;&quot;&gt;Micro Services API Gateway&lt;/font&gt;" style="swimlane;whiteSpace=wrap;html=1;" vertex="1" parent="1">
          <mxGeometry x="330" width="350" height="1140" as="geometry" />
        </mxCell>
        <mxCell id="5rrc9BB_ldE9aC9MNipi-25" value="&lt;font style=&quot;font-size: 18px;&quot;&gt;auth-api&lt;/font&gt;" style="swimlane;whiteSpace=wrap;html=1;startSize=23;" vertex="1" parent="5rrc9BB_ldE9aC9MNipi-24">
          <mxGeometry x="10" y="70" width="310" height="140" as="geometry" />
        </mxCell>
        <mxCell id="5rrc9BB_ldE9aC9MNipi-27" value="" style="aspect=fixed;sketch=0;html=1;dashed=0;whitespace=wrap;verticalLabelPosition=bottom;verticalAlign=top;fillColor=#2875E2;strokeColor=#ffffff;points=[[0.005,0.63,0],[0.1,0.2,0],[0.9,0.2,0],[0.5,0,0],[0.995,0.63,0],[0.72,0.99,0],[0.5,1,0],[0.28,0.99,0]];shape=mxgraph.kubernetes.icon2;prIcon=api" vertex="1" parent="5rrc9BB_ldE9aC9MNipi-25">
          <mxGeometry x="110" y="43.6" width="90" height="86.4" as="geometry" />
        </mxCell>
        <mxCell id="5rrc9BB_ldE9aC9MNipi-28" value="&lt;font style=&quot;font-size: 18px;&quot;&gt;service-catalog-api&lt;/font&gt;" style="swimlane;whiteSpace=wrap;html=1;startSize=23;" vertex="1" parent="5rrc9BB_ldE9aC9MNipi-24">
          <mxGeometry x="10" y="230" width="310" height="140" as="geometry" />
        </mxCell>
        <mxCell id="5rrc9BB_ldE9aC9MNipi-31" value="" style="aspect=fixed;sketch=0;html=1;dashed=0;whitespace=wrap;verticalLabelPosition=bottom;verticalAlign=top;fillColor=#2875E2;strokeColor=#ffffff;points=[[0.005,0.63,0],[0.1,0.2,0],[0.9,0.2,0],[0.5,0,0],[0.995,0.63,0],[0.72,0.99,0],[0.5,1,0],[0.28,0.99,0]];shape=mxgraph.kubernetes.icon2;prIcon=api" vertex="1" parent="5rrc9BB_ldE9aC9MNipi-28">
          <mxGeometry x="120" y="43.6" width="90" height="86.4" as="geometry" />
        </mxCell>
        <mxCell id="5rrc9BB_ldE9aC9MNipi-32" value="&lt;font style=&quot;font-size: 18px;&quot;&gt;payment-api&lt;/font&gt;" style="swimlane;whiteSpace=wrap;html=1;startSize=23;" vertex="1" parent="5rrc9BB_ldE9aC9MNipi-24">
          <mxGeometry x="10" y="400" width="310" height="140" as="geometry" />
        </mxCell>
        <mxCell id="5rrc9BB_ldE9aC9MNipi-35" value="" style="aspect=fixed;sketch=0;html=1;dashed=0;whitespace=wrap;verticalLabelPosition=bottom;verticalAlign=top;fillColor=#2875E2;strokeColor=#ffffff;points=[[0.005,0.63,0],[0.1,0.2,0],[0.9,0.2,0],[0.5,0,0],[0.995,0.63,0],[0.72,0.99,0],[0.5,1,0],[0.28,0.99,0]];shape=mxgraph.kubernetes.icon2;prIcon=api" vertex="1" parent="5rrc9BB_ldE9aC9MNipi-32">
          <mxGeometry x="20" y="43.6" width="90" height="86.4" as="geometry" />
        </mxCell>
        <mxCell id="5rrc9BB_ldE9aC9MNipi-36" value="&lt;font style=&quot;font-size: 18px;&quot;&gt;Blockchain API&lt;/font&gt;" style="swimlane;whiteSpace=wrap;html=1;startSize=23;" vertex="1" parent="5rrc9BB_ldE9aC9MNipi-24">
          <mxGeometry x="20" y="940" width="310" height="140" as="geometry" />
        </mxCell>
        <mxCell id="5rrc9BB_ldE9aC9MNipi-37" value="" style="dashed=0;outlineConnect=0;html=1;align=center;labelPosition=center;verticalLabelPosition=bottom;verticalAlign=top;shape=mxgraph.webicons.mongodb;gradientColor=#DFDEDE" vertex="1" parent="5rrc9BB_ldE9aC9MNipi-36">
          <mxGeometry x="160" y="50" width="120" height="80" as="geometry" />
        </mxCell>
        <mxCell id="5rrc9BB_ldE9aC9MNipi-38" value="Mongo DB" style="text;html=1;align=center;verticalAlign=middle;resizable=0;points=[];autosize=1;strokeColor=none;fillColor=none;" vertex="1" parent="5rrc9BB_ldE9aC9MNipi-36">
          <mxGeometry x="170" y="30" width="80" height="30" as="geometry" />
        </mxCell>
        <mxCell id="5rrc9BB_ldE9aC9MNipi-39" value="" style="aspect=fixed;sketch=0;html=1;dashed=0;whitespace=wrap;verticalLabelPosition=bottom;verticalAlign=top;fillColor=#2875E2;strokeColor=#ffffff;points=[[0.005,0.63,0],[0.1,0.2,0],[0.9,0.2,0],[0.5,0,0],[0.995,0.63,0],[0.72,0.99,0],[0.5,1,0],[0.28,0.99,0]];shape=mxgraph.kubernetes.icon2;prIcon=api" vertex="1" parent="5rrc9BB_ldE9aC9MNipi-36">
          <mxGeometry x="20" y="43.6" width="90" height="86.4" as="geometry" />
        </mxCell>
        <mxCell id="5rrc9BB_ldE9aC9MNipi-40" value="&lt;font style=&quot;font-size: 18px;&quot;&gt;queue-service-api&lt;/font&gt;" style="swimlane;whiteSpace=wrap;html=1;startSize=23;" vertex="1" parent="5rrc9BB_ldE9aC9MNipi-24">
          <mxGeometry x="10" y="580" width="310" height="140" as="geometry" />
        </mxCell>
        <mxCell id="5rrc9BB_ldE9aC9MNipi-43" value="" style="aspect=fixed;sketch=0;html=1;dashed=0;whitespace=wrap;verticalLabelPosition=bottom;verticalAlign=top;fillColor=#2875E2;strokeColor=#ffffff;points=[[0.005,0.63,0],[0.1,0.2,0],[0.9,0.2,0],[0.5,0,0],[0.995,0.63,0],[0.72,0.99,0],[0.5,1,0],[0.28,0.99,0]];shape=mxgraph.kubernetes.icon2;prIcon=api" vertex="1" parent="5rrc9BB_ldE9aC9MNipi-40">
          <mxGeometry x="20" y="43.6" width="90" height="86.4" as="geometry" />
        </mxCell>
        <mxCell id="5rrc9BB_ldE9aC9MNipi-44" value="&lt;font style=&quot;font-size: 18px;&quot;&gt;Verification API&lt;/font&gt;" style="swimlane;whiteSpace=wrap;html=1;startSize=23;" vertex="1" parent="5rrc9BB_ldE9aC9MNipi-24">
          <mxGeometry x="10" y="750" width="310" height="140" as="geometry" />
        </mxCell>
        <mxCell id="5rrc9BB_ldE9aC9MNipi-47" value="" style="aspect=fixed;sketch=0;html=1;dashed=0;whitespace=wrap;verticalLabelPosition=bottom;verticalAlign=top;fillColor=#2875E2;strokeColor=#ffffff;points=[[0.005,0.63,0],[0.1,0.2,0],[0.9,0.2,0],[0.5,0,0],[0.995,0.63,0],[0.72,0.99,0],[0.5,1,0],[0.28,0.99,0]];shape=mxgraph.kubernetes.icon2;prIcon=api" vertex="1" parent="5rrc9BB_ldE9aC9MNipi-44">
          <mxGeometry x="20" y="43.6" width="90" height="86.4" as="geometry" />
        </mxCell>
      </root>
    </mxGraphModel>
  </diagram>
</mxfile>
